<mxfile host="65bd71144e">
    <diagram id="gw2JLppOP-cWkTk1DFTF" name="Page-1">
        <mxGraphModel dx="986" dy="1541" grid="1" gridSize="11" guides="1" tooltips="1" connect="1" arrows="1" fold="1" page="1" pageScale="1" pageWidth="850" pageHeight="1100" background="#1A1A1A" math="0" shadow="1">
            <root>
                <mxCell id="0"/>
                <mxCell id="1" parent="0"/>
                <mxCell id="108" value="" style="rounded=0;whiteSpace=wrap;html=1;" parent="1" vertex="1">
                    <mxGeometry x="462" y="507" width="358" height="60" as="geometry"/>
                </mxCell>
                <mxCell id="12" value="1" style="ellipse;whiteSpace=wrap;html=1;fontSize=36;rounded=0;" parent="1" vertex="1">
                    <mxGeometry x="482" y="282.95000000000005" width="50" height="50" as="geometry"/>
                </mxCell>
                <mxCell id="145" style="edgeStyle=none;html=1;entryX=0.5;entryY=0;entryDx=0;entryDy=0;strokeColor=#E6E6E6;strokeWidth=2;fontSize=17;fontColor=default;fillColor=default;" parent="1" target="144" edge="1">
                    <mxGeometry relative="1" as="geometry">
                        <mxPoint x="582.22" y="824.54" as="sourcePoint"/>
                    </mxGeometry>
                </mxCell>
                <mxCell id="2" value="&lt;div style=&quot;text-align: justify;&quot;&gt;&lt;br&gt;&lt;/div&gt;" style="rounded=0;whiteSpace=wrap;html=1;" parent="1" vertex="1">
                    <mxGeometry x="426.02" y="715" width="363" height="112" as="geometry"/>
                </mxCell>
                <mxCell id="11" value="&lt;font style=&quot;font-size: 36px;&quot;&gt;1&lt;/font&gt;" style="text;html=1;strokeColor=none;fillColor=none;align=center;verticalAlign=middle;whiteSpace=wrap;rounded=0;" parent="1" vertex="1">
                    <mxGeometry x="297" y="234" width="60" height="30" as="geometry"/>
                </mxCell>
                <mxCell id="16" value="When the FSM is first loaded, images and sounds are loaded into their own respective lists" style="text;html=1;strokeColor=none;fillColor=none;spacing=5;spacingTop=-20;whiteSpace=wrap;overflow=hidden;rounded=0;fontSize=14;" parent="1" vertex="1">
                    <mxGeometry x="462" y="527" width="370" height="50" as="geometry"/>
                </mxCell>
                <mxCell id="17" value="&lt;font face=&quot;Lucida Console&quot;&gt;&lt;span style=&quot;font-size: 11px;&quot;&gt;&lt;br&gt;&lt;/span&gt;&lt;/font&gt;" style="shape=document;whiteSpace=wrap;html=1;boundedLbl=1;fontSize=14;align=left;rounded=0;" parent="1" vertex="1">
                    <mxGeometry x="540.02" y="282.95000000000005" width="245" height="93" as="geometry"/>
                </mxCell>
                <mxCell id="19" value="&lt;h1 style=&quot;font-size: 20px;&quot;&gt;&lt;font style=&quot;font-size: 20px;&quot;&gt;[EX]&lt;/font&gt;cat.states&lt;/h1&gt;" style="text;html=1;strokeColor=none;fillColor=none;spacing=5;spacingTop=-20;whiteSpace=wrap;overflow=hidden;rounded=0;fontFamily=Lucida Console;fontSize=12;" parent="1" vertex="1">
                    <mxGeometry x="580" y="206" width="190" height="39" as="geometry"/>
                </mxCell>
                <mxCell id="23" style="edgeStyle=none;html=1;fontFamily=Lucida Console;fontSize=11;exitX=0.1;exitY=0.5;exitDx=0;exitDy=0;exitPerimeter=0;rounded=0;" parent="1" source="20" edge="1">
                    <mxGeometry relative="1" as="geometry">
                        <mxPoint x="697.02" y="452.95000000000005" as="targetPoint"/>
                        <Array as="points">
                            <mxPoint x="697.02" y="298.95000000000005"/>
                        </Array>
                        <mxPoint x="772" y="293" as="sourcePoint"/>
                    </mxGeometry>
                </mxCell>
                <mxCell id="20" value="" style="shape=curlyBracket;whiteSpace=wrap;html=1;rounded=0;flipH=1;labelPosition=right;verticalLabelPosition=middle;align=left;verticalAlign=middle;fontFamily=Lucida Console;fontSize=11;" parent="1" vertex="1">
                    <mxGeometry x="653.02" y="286.95000000000005" width="20" height="25" as="geometry"/>
                </mxCell>
                <mxCell id="21" value="" style="shape=curlyBracket;whiteSpace=wrap;html=1;rounded=0;flipH=1;labelPosition=right;verticalLabelPosition=middle;align=left;verticalAlign=middle;fontFamily=Lucida Console;fontSize=11;size=0.48983036542180325;" parent="1" vertex="1">
                    <mxGeometry x="608" y="315.95000000000005" width="22" height="27" as="geometry"/>
                </mxCell>
                <mxCell id="24" value="[EX]cat0,[EX]cat1,[EX]cat2,[EX]cat3,flea" style="shape=partialRectangle;whiteSpace=wrap;html=1;bottom=1;right=1;left=1;top=0;fillColor=none;routingCenterX=-0.5;fontFamily=Lucida Console;fontSize=11;rounded=0;" parent="1" vertex="1">
                    <mxGeometry x="550" y="487" width="270" height="20" as="geometry"/>
                </mxCell>
                <mxCell id="26" value="meow,bell" style="shape=partialRectangle;whiteSpace=wrap;html=1;bottom=1;right=1;left=1;top=0;fillColor=none;routingCenterX=-0.5;fontFamily=Lucida Console;fontSize=11;rounded=0;" parent="1" vertex="1">
                    <mxGeometry x="462" y="487" width="84" height="20" as="geometry"/>
                </mxCell>
                <mxCell id="27" value="&lt;h1&gt;&lt;font style=&quot;font-size: 14px;&quot;&gt;0&lt;/font&gt;&lt;/h1&gt;" style="text;html=1;strokeColor=none;fillColor=none;spacing=5;spacingTop=-20;whiteSpace=wrap;overflow=hidden;rounded=0;fontFamily=Lucida Console;fontSize=11;" parent="1" vertex="1">
                    <mxGeometry x="570" y="457" width="20" height="30" as="geometry"/>
                </mxCell>
                <mxCell id="28" value="&lt;h1&gt;&lt;font style=&quot;font-size: 14px;&quot;&gt;1&lt;/font&gt;&lt;/h1&gt;" style="text;html=1;strokeColor=none;fillColor=none;spacing=5;spacingTop=-20;whiteSpace=wrap;overflow=hidden;rounded=0;fontFamily=Lucida Console;fontSize=11;" parent="1" vertex="1">
                    <mxGeometry x="630" y="457" width="20" height="30" as="geometry"/>
                </mxCell>
                <mxCell id="29" value="&lt;h1&gt;&lt;font style=&quot;font-size: 14px;&quot;&gt;2&lt;/font&gt;&lt;/h1&gt;&lt;span style=&quot;color: rgba(0, 0, 0, 0); font-family: monospace; font-size: 0px;&quot;&gt;%3CmxGraphModel%3E%3Croot%3E%3CmxCell%20id%3D%220%22%2F%3E%3CmxCell%20id%3D%221%22%20parent%3D%220%22%2F%3E%3CmxCell%20id%3D%222%22%20value%3D%22%26lt%3Bh1%26gt%3B%26lt%3Bfont%20style%3D%26quot%3Bfont-size%3A%2014px%3B%26quot%3B%26gt%3B0%26lt%3B%2Ffont%26gt%3B%26lt%3B%2Fh1%26gt%3B%22%20style%3D%22text%3Bhtml%3D1%3BstrokeColor%3Dnone%3BfillColor%3Dnone%3Bspacing%3D5%3BspacingTop%3D-20%3BwhiteSpace%3Dwrap%3Boverflow%3Dhidden%3Brounded%3D0%3BfontFamily%3DLucida%20Console%3BfontSize%3D11%3B%22%20vertex%3D%221%22%20parent%3D%221%22%3E%3CmxGeometry%20x%3D%2250%22%20y%3D%22500%22%20width%3D%2220%22%20height%3D%2230%22%20as%3D%22geometry%22%2F%3E%3C%2FmxCell%3E%3C%2Froot%3E%3C%2FmxGraphModel%3E&lt;/span&gt;&lt;span style=&quot;color: rgba(0, 0, 0, 0); font-family: monospace; font-size: 0px;&quot;&gt;%3CmxGraphModel%3E%3Croot%3E%3CmxCell%20id%3D%220%22%2F%3E%3CmxCell%20id%3D%221%22%20parent%3D%220%22%2F%3E%3CmxCell%20id%3D%222%22%20value%3D%22%26lt%3Bh1%26gt%3B%26lt%3Bfont%20style%3D%26quot%3Bfont-size%3A%2014px%3B%26quot%3B%26gt%3B0%26lt%3B%2Ffont%26gt%3B%26lt%3B%2Fh1%26gt%3B%22%20style%3D%22text%3Bhtml%3D1%3BstrokeColor%3Dnone%3BfillColor%3Dnone%3Bspacing%3D5%3BspacingTop%3D-20%3BwhiteSpace%3Dwrap%3Boverflow%3Dhidden%3Brounded%3D0%3BfontFamily%3DLucida%20Console%3BfontSize%3D11%3B%22%20vertex%3D%221%22%20parent%3D%221%22%3E%3CmxGeometry%20x%3D%2250%22%20y%3D%22500%22%20width%3D%2220%22%20height%3D%2230%22%20as%3D%22geometry%22%2F%3E%3C%2FmxCell%3E%3C%2Froot%3E%3C%2FmxGraphModel%3E&lt;/span&gt;" style="text;html=1;strokeColor=none;fillColor=none;spacing=5;spacingTop=-20;whiteSpace=wrap;overflow=hidden;rounded=0;fontFamily=Lucida Console;fontSize=11;" parent="1" vertex="1">
                    <mxGeometry x="695" y="457" width="20" height="30" as="geometry"/>
                </mxCell>
                <mxCell id="30" value="&lt;h1&gt;&lt;font style=&quot;font-size: 14px;&quot;&gt;3&lt;/font&gt;&lt;/h1&gt;&lt;div&gt;&lt;font style=&quot;font-size: 14px;&quot;&gt;&lt;br&gt;&lt;/font&gt;&lt;/div&gt;" style="text;html=1;strokeColor=none;fillColor=none;spacing=5;spacingTop=-20;whiteSpace=wrap;overflow=hidden;rounded=0;fontFamily=Lucida Console;fontSize=11;" parent="1" vertex="1">
                    <mxGeometry x="750" y="457" width="20" height="30" as="geometry"/>
                </mxCell>
                <mxCell id="31" value="&lt;h1&gt;&lt;font style=&quot;font-size: 14px;&quot;&gt;4&lt;/font&gt;&lt;/h1&gt;" style="text;html=1;strokeColor=none;fillColor=none;spacing=5;spacingTop=-20;whiteSpace=wrap;overflow=hidden;rounded=0;fontFamily=Lucida Console;fontSize=11;" parent="1" vertex="1">
                    <mxGeometry x="791" y="457" width="20" height="30" as="geometry"/>
                </mxCell>
                <mxCell id="32" value="&lt;h1&gt;&lt;font style=&quot;font-size: 14px;&quot;&gt;0&lt;/font&gt;&lt;/h1&gt;" style="text;html=1;strokeColor=none;fillColor=none;spacing=5;spacingTop=-20;whiteSpace=wrap;overflow=hidden;rounded=0;fontFamily=Lucida Console;fontSize=11;" parent="1" vertex="1">
                    <mxGeometry x="476" y="457" width="20" height="30" as="geometry"/>
                </mxCell>
                <mxCell id="33" value="&lt;h1&gt;&lt;font style=&quot;font-size: 14px;&quot;&gt;1&lt;/font&gt;&lt;/h1&gt;&lt;div&gt;&lt;font style=&quot;font-size: 14px;&quot;&gt;&lt;br&gt;&lt;/font&gt;&lt;/div&gt;" style="text;html=1;strokeColor=none;fillColor=none;spacing=5;spacingTop=-20;whiteSpace=wrap;overflow=hidden;rounded=0;fontFamily=Lucida Console;fontSize=11;" parent="1" vertex="1">
                    <mxGeometry x="512" y="457" width="20" height="30" as="geometry"/>
                </mxCell>
                <mxCell id="120" style="edgeStyle=none;html=1;fontSize=24;fontColor=default;entryX=0.5;entryY=0;entryDx=0;entryDy=0;" parent="1" source="36" target="72" edge="1">
                    <mxGeometry relative="1" as="geometry">
                        <mxPoint x="644.5" y="617.9499999999998" as="targetPoint"/>
                    </mxGeometry>
                </mxCell>
                <mxCell id="36" value="" style="shape=curlyBracket;whiteSpace=wrap;html=1;rounded=0;flipH=1;labelPosition=right;verticalLabelPosition=middle;align=left;verticalAlign=middle;fontFamily=Lucida Console;fontSize=14;rotation=90;" parent="1" vertex="1">
                    <mxGeometry x="634.5" y="404.5" width="20" height="360" as="geometry"/>
                </mxCell>
                <mxCell id="39" value="IDLE" style="text;html=1;strokeColor=none;fillColor=none;align=center;verticalAlign=middle;whiteSpace=wrap;rounded=0;fontFamily=Lucida Console;fontSize=14;" parent="1" vertex="1">
                    <mxGeometry x="423.52" y="682" width="50" height="30" as="geometry"/>
                </mxCell>
                <mxCell id="40" value="&lt;font style=&quot;font-size: 20px;&quot;&gt;FLEASCRATCH&lt;/font&gt;" style="text;html=1;strokeColor=none;fillColor=none;align=center;verticalAlign=middle;whiteSpace=wrap;rounded=0;fontFamily=Lucida Console;fontSize=14;" parent="1" vertex="1">
                    <mxGeometry x="461" y="983" width="50" height="30" as="geometry"/>
                </mxCell>
                <mxCell id="41" value="DEATH" style="text;html=1;strokeColor=none;fillColor=none;align=center;verticalAlign=middle;whiteSpace=wrap;rounded=0;fontFamily=Lucida Console;fontSize=14;" parent="1" vertex="1">
                    <mxGeometry x="464.52" y="1083.9999999999998" width="50" height="30" as="geometry"/>
                </mxCell>
                <mxCell id="49" value="&lt;div style=&quot;text-align: justify;&quot;&gt;&lt;div style=&quot;font-family: Helvetica; font-size: 12px; text-align: left;&quot;&gt;&lt;font face=&quot;Courier New&quot;&gt;state IDLE FLEASCRATCH 0&lt;/font&gt;&lt;/div&gt;&lt;div style=&quot;font-family: Helvetica; font-size: 12px; text-align: left;&quot;&gt;&lt;font face=&quot;Courier New&quot;&gt;frame 0 0.5 0 0 0 NONE&lt;/font&gt;&lt;/div&gt;&lt;div style=&quot;font-family: Helvetica; font-size: 12px; text-align: left;&quot;&gt;&lt;font face=&quot;Courier New&quot;&gt;frame 0 0.5 0 0 0 SETVAR global.FSM_STATE &quot;IDLE&quot;&lt;/font&gt;&lt;/div&gt;&lt;div style=&quot;font-family: Helvetica; font-size: 12px; text-align: left;&quot;&gt;&lt;font face=&quot;Courier New&quot;&gt;frame 0 0.5 0 0 0 SOUND 0&lt;/font&gt;&lt;/div&gt;&lt;div style=&quot;font-family: Helvetica; font-size: 12px; text-align: left;&quot;&gt;&lt;font face=&quot;Courier New&quot;&gt;frame 0 0.5 0 0 0 READY&lt;/font&gt;&lt;/div&gt;&lt;/div&gt;" style="text;html=1;strokeColor=none;fillColor=none;align=center;verticalAlign=middle;whiteSpace=wrap;rounded=0;fontFamily=Lucida Console;fontSize=8;" parent="1" vertex="1">
                    <mxGeometry x="437.02" y="723" width="352" height="91" as="geometry"/>
                </mxCell>
                <mxCell id="71" value="&lt;font style=&quot;font-size: 24px;&quot; face=&quot;Helvetica&quot;&gt;[EX]cat&lt;/font&gt;" style="text;html=1;strokeColor=none;fillColor=none;align=center;verticalAlign=middle;whiteSpace=wrap;rounded=0;fontFamily=Lucida Console;fontSize=18;" parent="1" vertex="1">
                    <mxGeometry x="754" y="-10" width="88" height="78.5" as="geometry"/>
                </mxCell>
                <mxCell id="121" style="edgeStyle=none;html=1;fontSize=24;fontColor=default;" parent="1" source="72" edge="1">
                    <mxGeometry relative="1" as="geometry">
                        <mxPoint x="645" y="693" as="targetPoint"/>
                    </mxGeometry>
                </mxCell>
                <mxCell id="72" value="2" style="ellipse;whiteSpace=wrap;html=1;fontSize=36;rounded=0;" parent="1" vertex="1">
                    <mxGeometry x="619.5" y="616" width="50" height="50" as="geometry"/>
                </mxCell>
                <mxCell id="76" value="" style="shape=curlyBracket;whiteSpace=wrap;html=1;rounded=0;flipH=1;labelPosition=right;verticalLabelPosition=middle;align=left;verticalAlign=middle;fontFamily=Helvetica;fontSize=18;rotation=-180;" parent="1" vertex="1">
                    <mxGeometry x="347" y="715.5" width="20" height="781.5" as="geometry"/>
                </mxCell>
                <mxCell id="79" value="3" style="ellipse;whiteSpace=wrap;html=1;fontSize=36;rounded=0;" parent="1" vertex="1">
                    <mxGeometry x="297" y="1081.2499999999998" width="50" height="50" as="geometry"/>
                </mxCell>
                <mxCell id="88" value="" style="ellipse;whiteSpace=wrap;html=1;fontFamily=Helvetica;fontSize=11;rounded=0;" parent="1" vertex="1">
                    <mxGeometry x="697.52" y="1102.9999999999998" width="20" height="20" as="geometry"/>
                </mxCell>
                <mxCell id="89" value="3.3" style="text;html=1;strokeColor=none;fillColor=none;align=center;verticalAlign=middle;whiteSpace=wrap;rounded=0;fontFamily=Helvetica;fontSize=11;" parent="1" vertex="1">
                    <mxGeometry x="697.52" y="1102.9999999999998" width="20" height="20" as="geometry"/>
                </mxCell>
                <mxCell id="90" value="" style="ellipse;whiteSpace=wrap;html=1;fontFamily=Helvetica;fontSize=11;rounded=0;" parent="1" vertex="1">
                    <mxGeometry x="697.52" y="1207.9999999999998" width="20" height="20" as="geometry"/>
                </mxCell>
                <mxCell id="91" value="3.4" style="text;html=1;strokeColor=none;fillColor=none;align=center;verticalAlign=middle;whiteSpace=wrap;rounded=0;fontFamily=Helvetica;fontSize=11;" parent="1" vertex="1">
                    <mxGeometry x="697.52" y="1207.9999999999998" width="20" height="20" as="geometry"/>
                </mxCell>
                <mxCell id="137" style="edgeStyle=none;html=1;exitX=1;exitY=0.5;exitDx=0;exitDy=0;fontSize=17;fontColor=default;strokeWidth=2;" parent="1" source="109" edge="1">
                    <mxGeometry relative="1" as="geometry">
                        <mxPoint x="714.52" y="1429" as="targetPoint"/>
                        <Array as="points">
                            <mxPoint x="714.52" y="1462"/>
                        </Array>
                    </mxGeometry>
                </mxCell>
                <mxCell id="109" value="repeat" style="rounded=0;whiteSpace=wrap;html=1;" parent="1" vertex="1">
                    <mxGeometry x="630.54" y="1450.9999999999998" width="66" height="24.5" as="geometry"/>
                </mxCell>
                <mxCell id="111" value="[EX]cat.states" style="swimlane;whiteSpace=wrap;html=1;gradientColor=none;fillColor=default;swimlaneLine=1;labelBackgroundColor=none;rounded=0;" parent="1" vertex="1">
                    <mxGeometry x="44" y="210" width="396" height="439" as="geometry"/>
                </mxCell>
                <mxCell id="112" value="" style="rounded=0;whiteSpace=wrap;html=1;labelBackgroundColor=none;fillColor=default;gradientColor=none;" parent="111" vertex="1">
                    <mxGeometry y="20" width="396" height="420" as="geometry"/>
                </mxCell>
                <mxCell id="113" value="&lt;div&gt;&lt;font face=&quot;Courier New&quot;&gt;image [EX]cat 0 3&lt;/font&gt;&lt;/div&gt;&lt;div&gt;&lt;font face=&quot;Courier New&quot;&gt;image flea&lt;/font&gt;&lt;/div&gt;&lt;div&gt;&lt;font face=&quot;Courier New&quot;&gt;sound meow&lt;/font&gt;&lt;/div&gt;&lt;div&gt;&lt;font face=&quot;Courier New&quot;&gt;sound bell&lt;/font&gt;&lt;/div&gt;&lt;div&gt;&lt;font face=&quot;Courier New&quot;&gt;&lt;br&gt;&lt;/font&gt;&lt;/div&gt;&lt;div&gt;&lt;font face=&quot;Courier New&quot;&gt;state IDLE FLEASCRATCH 0&lt;/font&gt;&lt;/div&gt;&lt;div&gt;&lt;font face=&quot;Courier New&quot;&gt;frame 0 0.5 0 0 0 NONE&lt;/font&gt;&lt;/div&gt;&lt;div&gt;&lt;font face=&quot;Courier New&quot;&gt;frame 0 0.5 0 0 0 SETVAR global.FSM_STATE &quot;IDLE&quot;&lt;/font&gt;&lt;/div&gt;&lt;div&gt;&lt;font face=&quot;Courier New&quot;&gt;frame 0 0.5 0 0 0 SOUND 0&lt;/font&gt;&lt;/div&gt;&lt;div&gt;&lt;font face=&quot;Courier New&quot;&gt;frame 0 0.5 0 0 0 READY&lt;/font&gt;&lt;/div&gt;&lt;div&gt;&lt;font face=&quot;Courier New&quot;&gt;&lt;br&gt;&lt;/font&gt;&lt;/div&gt;&lt;div&gt;&lt;font face=&quot;Courier New&quot;&gt;state FLEASCRATCH IDLE 0&lt;/font&gt;&lt;/div&gt;&lt;div&gt;&lt;font face=&quot;Courier New&quot;&gt;frame 1 2 0 0 0 NONE&lt;/font&gt;&lt;/div&gt;&lt;div&gt;&lt;font face=&quot;Courier New&quot;&gt;frame 1 2 0 0 0 SOUND 1&lt;/font&gt;&lt;/div&gt;&lt;div&gt;&lt;font face=&quot;Courier New&quot;&gt;frame 1 2 0 0 0 SETVAR global.FSM_STATE &quot;FLEASCRATCH&quot;&lt;/font&gt;&lt;/div&gt;&lt;div&gt;&lt;font face=&quot;Courier New&quot;&gt;frame 1 2 0 0 0 PARTICLES 4 1,3000,0,64,0 0,64,0&lt;/font&gt;&lt;/div&gt;&lt;div&gt;&lt;font face=&quot;Courier New&quot;&gt;frame 1 2 0 0 0 NONE&lt;/font&gt;&lt;/div&gt;&lt;div&gt;&lt;font face=&quot;Courier New&quot;&gt;&lt;br&gt;&lt;/font&gt;&lt;/div&gt;&lt;div&gt;&lt;font face=&quot;Courier New&quot;&gt;state DEATH DEAD 0&lt;/font&gt;&lt;/div&gt;&lt;div&gt;&lt;font face=&quot;Courier New&quot;&gt;frame 2 0.166 0 0 0 NONE&lt;/font&gt;&lt;/div&gt;&lt;div&gt;&lt;font face=&quot;Courier New&quot;&gt;frame 2 0.166 0 0 0 SETVAR global.FSM_STATE &quot;DEATH&quot;&lt;/font&gt;&lt;/div&gt;&lt;div&gt;&lt;font face=&quot;Courier New&quot;&gt;frame 2 0.166 0 0 0 NONE&lt;/font&gt;&lt;/div&gt;&lt;div&gt;&lt;font face=&quot;Courier New&quot;&gt;&lt;br&gt;&lt;/font&gt;&lt;/div&gt;&lt;div&gt;&lt;font face=&quot;Courier New&quot;&gt;state DEAD NONE 0&lt;/font&gt;&lt;/div&gt;&lt;div&gt;&lt;font face=&quot;Courier New&quot;&gt;frame 3 0.25 0 0 0 NONE&lt;/font&gt;&lt;/div&gt;&lt;div&gt;&lt;font face=&quot;Courier New&quot;&gt;frame 3 0.25 0 0 0 SETVAR global.FSM_STATE &quot;DEAD&quot;&lt;/font&gt;&lt;/div&gt;&lt;div&gt;&lt;font face=&quot;Courier New&quot;&gt;frame 3 0.25 0 0 0 NONE&lt;/font&gt;&lt;/div&gt;&lt;div&gt;&lt;br&gt;&lt;/div&gt;" style="text;whiteSpace=wrap;html=1;rounded=0;" parent="111" vertex="1">
                    <mxGeometry x="6" y="20" width="402" height="431" as="geometry"/>
                </mxCell>
                <mxCell id="114" value="📂Project/States/[EX]cat.states" style="text;html=1;strokeColor=none;fillColor=none;align=center;verticalAlign=middle;whiteSpace=wrap;rounded=0;labelBackgroundColor=none;" parent="1" vertex="1">
                    <mxGeometry x="11" y="176" width="240" height="30" as="geometry"/>
                </mxCell>
                <mxCell id="115" value="&lt;br&gt;&lt;h1 style=&quot;border-color: rgb(0, 0, 0); font-family: Helvetica; font-style: normal; font-variant-ligatures: normal; font-variant-caps: normal; letter-spacing: normal; orphans: 2; text-align: left; text-indent: 0px; text-transform: none; widows: 2; word-spacing: 0px; -webkit-text-stroke-width: 0px; text-decoration-thickness: initial; text-decoration-style: initial; text-decoration-color: initial; font-size: 36px;&quot;&gt;&lt;font style=&quot;border-color: rgb(0, 0, 0); font-size: 36px;&quot;&gt;EFPSE FSM&lt;/font&gt;&lt;/h1&gt;" style="text;html=1;strokeColor=none;fillColor=none;align=center;verticalAlign=middle;whiteSpace=wrap;rounded=0;fontSize=36;fontColor=default;labelBackgroundColor=none;labelBorderColor=none;" parent="1" vertex="1">
                    <mxGeometry x="23.5" y="-22" width="244" height="44" as="geometry"/>
                </mxCell>
                <mxCell id="117" value="&lt;div style=&quot;font-family: &amp;quot;Lucida Console&amp;quot;; font-size: 11px; text-align: left;&quot;&gt;image [EX]cat 0 3&lt;/div&gt;&lt;div style=&quot;font-family: &amp;quot;Lucida Console&amp;quot;; font-size: 11px; text-align: left;&quot;&gt;image flea&lt;/div&gt;&lt;div style=&quot;font-family: &amp;quot;Lucida Console&amp;quot;; font-size: 11px; text-align: left;&quot;&gt;sound meow&lt;/div&gt;&lt;div style=&quot;font-family: &amp;quot;Lucida Console&amp;quot;; font-size: 11px; text-align: left;&quot;&gt;sound bell&lt;/div&gt;" style="text;html=1;strokeColor=none;fillColor=none;align=center;verticalAlign=middle;whiteSpace=wrap;rounded=0;labelBackgroundColor=none;labelBorderColor=none;fontSize=24;fontColor=default;" parent="1" vertex="1">
                    <mxGeometry x="542.02" y="282.95000000000005" width="122" height="63" as="geometry"/>
                </mxCell>
                <mxCell id="116" value="" style="endArrow=none;html=1;fontSize=36;fontColor=default;" parent="1" edge="1">
                    <mxGeometry width="50" height="50" relative="1" as="geometry">
                        <mxPoint x="58.5" y="44" as="sourcePoint"/>
                        <mxPoint x="806.5" y="44" as="targetPoint"/>
                    </mxGeometry>
                </mxCell>
                <mxCell id="118" value="" style="endArrow=classic;html=1;fontSize=24;fontColor=default;exitX=0.008;exitY=0.499;exitDx=0;exitDy=0;exitPerimeter=0;" parent="1" source="21" edge="1">
                    <mxGeometry width="50" height="50" relative="1" as="geometry">
                        <mxPoint x="635.02" y="328.95000000000005" as="sourcePoint"/>
                        <mxPoint x="510.02" y="452.95000000000005" as="targetPoint"/>
                        <Array as="points">
                            <mxPoint x="645.02" y="328.95000000000005"/>
                            <mxPoint x="645.02" y="386.95000000000005"/>
                            <mxPoint x="510.02" y="386.95000000000005"/>
                            <mxPoint x="510.02" y="430.95000000000005"/>
                        </Array>
                    </mxGeometry>
                </mxCell>
                <mxCell id="123" value="&lt;div style=&quot;text-align: justify;&quot;&gt;&lt;br&gt;&lt;/div&gt;" style="rounded=0;whiteSpace=wrap;html=1;" parent="1" vertex="1">
                    <mxGeometry x="426.02" y="1012" width="365.5" height="112" as="geometry"/>
                </mxCell>
                <mxCell id="124" value="&lt;div style=&quot;text-align: justify;&quot;&gt;&lt;div style=&quot;font-family: Helvetica; font-size: 12px; text-align: left;&quot;&gt;&lt;font face=&quot;Courier New&quot;&gt;state IDLE FLEASCRATCH 0&lt;/font&gt;&lt;/div&gt;&lt;div style=&quot;font-family: Helvetica; font-size: 12px; text-align: left;&quot;&gt;&lt;font face=&quot;Courier New&quot;&gt;frame 0 0.5 0 0 0 NONE&lt;/font&gt;&lt;/div&gt;&lt;div style=&quot;font-family: Helvetica; font-size: 12px; text-align: left;&quot;&gt;&lt;font face=&quot;Courier New&quot;&gt;frame 0 0.5 0 0 0 SETVAR global.FSM_STATE &quot;IDLE&quot;&lt;/font&gt;&lt;/div&gt;&lt;div style=&quot;font-family: Helvetica; font-size: 12px; text-align: left;&quot;&gt;&lt;font face=&quot;Courier New&quot;&gt;frame 0 0.5 0 0 0 SOUND 0&lt;/font&gt;&lt;/div&gt;&lt;div style=&quot;font-family: Helvetica; font-size: 12px; text-align: left;&quot;&gt;&lt;font face=&quot;Courier New&quot;&gt;frame 0 0.5 0 0 0 READY&lt;/font&gt;&lt;/div&gt;&lt;/div&gt;" style="text;html=1;strokeColor=none;fillColor=none;align=center;verticalAlign=middle;whiteSpace=wrap;rounded=0;fontFamily=Lucida Console;fontSize=8;" parent="1" vertex="1">
                    <mxGeometry x="437.02" y="1020" width="365.5" height="91" as="geometry"/>
                </mxCell>
                <mxCell id="86" value="&lt;font style=&quot;font-size: 17px;&quot;&gt;3.2&lt;br&gt;&lt;/font&gt;" style="ellipse;whiteSpace=wrap;html=1;fontFamily=Helvetica;fontSize=11;rounded=0;" parent="1" vertex="1">
                    <mxGeometry x="771.52" y="996" width="33" height="33" as="geometry"/>
                </mxCell>
                <mxCell id="125" value="&lt;font style=&quot;font-size: 17px;&quot;&gt;3.1&lt;/font&gt;" style="ellipse;whiteSpace=wrap;html=1;fontFamily=Helvetica;fontSize=11;rounded=0;" parent="1" vertex="1">
                    <mxGeometry x="769.02" y="699" width="33" height="33" as="geometry"/>
                </mxCell>
                <mxCell id="126" value="&lt;font style=&quot;font-size: 20px;&quot;&gt;DEATH&lt;/font&gt;" style="text;html=1;strokeColor=none;fillColor=none;align=center;verticalAlign=middle;whiteSpace=wrap;rounded=0;fontFamily=Lucida Console;fontSize=14;" parent="1" vertex="1">
                    <mxGeometry x="428.52" y="1132" width="50" height="30" as="geometry"/>
                </mxCell>
                <mxCell id="160" style="edgeStyle=none;html=1;entryX=0.5;entryY=0;entryDx=0;entryDy=0;strokeColor=#E6E6E6;strokeWidth=2;fontSize=17;fontColor=default;fillColor=default;" parent="1" source="127" target="133" edge="1">
                    <mxGeometry relative="1" as="geometry"/>
                </mxCell>
                <mxCell id="127" value="&lt;div style=&quot;text-align: justify;&quot;&gt;&lt;br&gt;&lt;/div&gt;" style="rounded=0;whiteSpace=wrap;html=1;" parent="1" vertex="1">
                    <mxGeometry x="426.02" y="1162" width="365.5" height="112" as="geometry"/>
                </mxCell>
                <mxCell id="128" value="&lt;div style=&quot;text-align: justify;&quot;&gt;&lt;div style=&quot;font-family: Helvetica; font-size: 12px; text-align: left;&quot;&gt;&lt;div&gt;&lt;font face=&quot;Courier New&quot;&gt;state DEATH DEAD 0&lt;/font&gt;&lt;/div&gt;&lt;div&gt;&lt;font face=&quot;Courier New&quot;&gt;frame 2 0.166 0 0 0 NONE&lt;/font&gt;&lt;/div&gt;&lt;div&gt;&lt;font face=&quot;Courier New&quot;&gt;frame 2 0.166 0 0 0 SETVAR global.FSM_STATE &quot;DEATH&quot;&lt;/font&gt;&lt;/div&gt;&lt;div&gt;&lt;font face=&quot;Courier New&quot;&gt;frame 2 0.166 0 0 0 NONE&lt;/font&gt;&lt;/div&gt;&lt;div&gt;&lt;font face=&quot;Courier New&quot;&gt;&lt;br&gt;&lt;/font&gt;&lt;/div&gt;&lt;/div&gt;&lt;/div&gt;" style="text;html=1;strokeColor=none;fillColor=none;align=center;verticalAlign=middle;whiteSpace=wrap;rounded=0;fontFamily=Lucida Console;fontSize=8;" parent="1" vertex="1">
                    <mxGeometry x="416.53999999999996" y="1162" width="387.98" height="91" as="geometry"/>
                </mxCell>
                <mxCell id="129" value="&lt;font style=&quot;font-size: 17px;&quot;&gt;3.3&lt;br&gt;&lt;/font&gt;" style="ellipse;whiteSpace=wrap;html=1;fontFamily=Helvetica;fontSize=11;rounded=0;" parent="1" vertex="1">
                    <mxGeometry x="765.52" y="1143" width="33" height="33" as="geometry"/>
                </mxCell>
                <mxCell id="130" value="" style="ellipse;whiteSpace=wrap;html=1;fontFamily=Helvetica;fontSize=11;rounded=0;" parent="1" vertex="1">
                    <mxGeometry x="697.52" y="1361.9999999999998" width="20" height="20" as="geometry"/>
                </mxCell>
                <mxCell id="131" value="3.4" style="text;html=1;strokeColor=none;fillColor=none;align=center;verticalAlign=middle;whiteSpace=wrap;rounded=0;fontFamily=Helvetica;fontSize=11;" parent="1" vertex="1">
                    <mxGeometry x="697.52" y="1361.9999999999998" width="20" height="20" as="geometry"/>
                </mxCell>
                <mxCell id="132" value="&lt;font style=&quot;font-size: 20px;&quot;&gt;DEAD&lt;/font&gt;" style="text;html=1;strokeColor=none;fillColor=none;align=center;verticalAlign=middle;whiteSpace=wrap;rounded=0;fontFamily=Lucida Console;fontSize=14;" parent="1" vertex="1">
                    <mxGeometry x="428.52" y="1286" width="50" height="30" as="geometry"/>
                </mxCell>
                <mxCell id="136" style="edgeStyle=none;html=1;fontSize=17;fontColor=default;entryX=0;entryY=0.5;entryDx=0;entryDy=0;strokeWidth=2;" parent="1" source="133" target="109" edge="1">
                    <mxGeometry relative="1" as="geometry">
                        <mxPoint x="585.52" y="1473" as="targetPoint"/>
                        <Array as="points">
                            <mxPoint x="604.52" y="1462"/>
                        </Array>
                    </mxGeometry>
                </mxCell>
                <mxCell id="133" value="&lt;div style=&quot;text-align: justify;&quot;&gt;&lt;br&gt;&lt;/div&gt;" style="rounded=0;whiteSpace=wrap;html=1;" parent="1" vertex="1">
                    <mxGeometry x="426.02" y="1316" width="365.5" height="112" as="geometry"/>
                </mxCell>
                <mxCell id="134" value="&lt;div style=&quot;text-align: justify;&quot;&gt;&lt;div style=&quot;font-family: Helvetica; font-size: 12px; text-align: left;&quot;&gt;&lt;div&gt;&lt;font face=&quot;Courier New&quot;&gt;state DEAD NONE 0&lt;/font&gt;&lt;/div&gt;&lt;div&gt;&lt;font face=&quot;Courier New&quot;&gt;frame 3 0.25 0 0 0 NONE&lt;/font&gt;&lt;/div&gt;&lt;div&gt;&lt;font face=&quot;Courier New&quot;&gt;frame 3 0.25 0 0 0 SETVAR global.FSM_STATE &quot;DEAD&quot;&lt;/font&gt;&lt;/div&gt;&lt;div&gt;&lt;font face=&quot;Courier New&quot;&gt;frame 3 0.25 0 0 0 NONE&lt;/font&gt;&lt;/div&gt;&lt;/div&gt;&lt;/div&gt;" style="text;html=1;strokeColor=none;fillColor=none;align=center;verticalAlign=middle;whiteSpace=wrap;rounded=0;fontFamily=Lucida Console;fontSize=8;" parent="1" vertex="1">
                    <mxGeometry x="430.27" y="1316" width="354.5" height="91" as="geometry"/>
                </mxCell>
                <mxCell id="135" value="&lt;font style=&quot;font-size: 17px;&quot;&gt;3.4&lt;br&gt;&lt;/font&gt;" style="ellipse;whiteSpace=wrap;html=1;fontFamily=Helvetica;fontSize=11;rounded=0;" parent="1" vertex="1">
                    <mxGeometry x="765.52" y="1297" width="33" height="33" as="geometry"/>
                </mxCell>
                <mxCell id="146" style="edgeStyle=none;html=1;strokeColor=#E6E6E6;strokeWidth=2;fontSize=17;fontColor=default;fillColor=default;entryX=0;entryY=0.5;entryDx=0;entryDy=0;" parent="1" source="144" target="127" edge="1">
                    <mxGeometry relative="1" as="geometry">
                        <mxPoint x="330" y="898" as="targetPoint"/>
                        <Array as="points">
                            <mxPoint x="396" y="898"/>
                            <mxPoint x="396" y="1218"/>
                        </Array>
                    </mxGeometry>
                </mxCell>
                <mxCell id="148" style="edgeStyle=none;html=1;entryX=0.333;entryY=0.013;entryDx=0;entryDy=0;strokeColor=#E6E6E6;strokeWidth=2;fontSize=17;fontColor=default;fillColor=default;entryPerimeter=0;" parent="1" source="144" edge="1">
                    <mxGeometry relative="1" as="geometry">
                        <mxPoint x="581.9515000000001" y="1011.9960000000001" as="targetPoint"/>
                    </mxGeometry>
                </mxCell>
                <mxCell id="144" value="hp&amp;gt;1" style="rhombus;whiteSpace=wrap;html=1;labelBackgroundColor=none;labelBorderColor=none;fontSize=17;fontColor=default;" parent="1" vertex="1">
                    <mxGeometry x="543.02" y="856.54" width="76.48" height="80" as="geometry"/>
                </mxCell>
                <mxCell id="147" value="No" style="text;html=1;strokeColor=none;fillColor=none;align=center;verticalAlign=middle;whiteSpace=wrap;rounded=0;labelBackgroundColor=none;labelBorderColor=none;fontSize=17;fontColor=default;" parent="1" vertex="1">
                    <mxGeometry x="488.74" y="867.54" width="60" height="30" as="geometry"/>
                </mxCell>
                <mxCell id="149" value="Yes" style="text;html=1;strokeColor=none;fillColor=none;align=center;verticalAlign=middle;whiteSpace=wrap;rounded=0;labelBackgroundColor=none;labelBorderColor=none;fontSize=17;fontColor=default;" parent="1" vertex="1">
                    <mxGeometry x="577.52" y="981" width="60" height="30" as="geometry"/>
                </mxCell>
                <mxCell id="151" value="No" style="text;html=1;strokeColor=none;fillColor=none;align=center;verticalAlign=middle;whiteSpace=wrap;rounded=0;labelBackgroundColor=none;labelBorderColor=none;fontSize=17;fontColor=default;" parent="1" vertex="1">
                    <mxGeometry x="752.02" y="869" width="60" height="30" as="geometry"/>
                </mxCell>
                <mxCell id="157" style="edgeStyle=none;html=1;exitX=0.5;exitY=0;exitDx=0;exitDy=0;entryX=0.768;entryY=1.006;entryDx=0;entryDy=0;entryPerimeter=0;strokeColor=#E6E6E6;strokeWidth=2;fontSize=17;fontColor=default;fillColor=default;" parent="1" source="150" target="2" edge="1">
                    <mxGeometry relative="1" as="geometry"/>
                </mxCell>
                <mxCell id="158" style="edgeStyle=none;html=1;exitX=1;exitY=0.5;exitDx=0;exitDy=0;strokeColor=#E6E6E6;strokeWidth=2;fontSize=17;fontColor=default;fillColor=default;entryX=0.971;entryY=0.505;entryDx=0;entryDy=0;entryPerimeter=0;" parent="1" source="150" target="128" edge="1">
                    <mxGeometry relative="1" as="geometry">
                        <mxPoint x="814" y="1216" as="targetPoint"/>
                        <Array as="points">
                            <mxPoint x="814" y="898"/>
                            <mxPoint x="814" y="1216"/>
                        </Array>
                    </mxGeometry>
                </mxCell>
                <mxCell id="150" value="hp&amp;gt;1" style="rhombus;whiteSpace=wrap;html=1;labelBackgroundColor=none;labelBorderColor=none;fontSize=17;fontColor=default;" parent="1" vertex="1">
                    <mxGeometry x="666.76" y="858" width="76.48" height="80" as="geometry"/>
                </mxCell>
                <mxCell id="156" value="" style="endArrow=classic;html=1;strokeColor=#E6E6E6;strokeWidth=2;fontSize=17;fontColor=default;fillColor=default;entryX=0.5;entryY=1;entryDx=0;entryDy=0;" parent="1" target="150" edge="1">
                    <mxGeometry width="50" height="50" relative="1" as="geometry">
                        <mxPoint x="705" y="1012" as="sourcePoint"/>
                        <mxPoint x="655" y="913" as="targetPoint"/>
                    </mxGeometry>
                </mxCell>
                <mxCell id="159" value="Yes" style="text;html=1;strokeColor=none;fillColor=none;align=center;verticalAlign=middle;whiteSpace=wrap;rounded=0;labelBackgroundColor=none;labelBorderColor=none;fontSize=17;fontColor=default;" parent="1" vertex="1">
                    <mxGeometry x="637.52" y="828" width="60" height="30" as="geometry"/>
                </mxCell>
                <mxCell id="161" value="" style="rounded=0;whiteSpace=wrap;html=1;" parent="1" vertex="1">
                    <mxGeometry x="32.5" y="866.25" width="242" height="1210" as="geometry"/>
                </mxCell>
                <mxCell id="99" value="&lt;font style=&quot;font-size: 24px;&quot;&gt;&lt;b&gt;1&lt;/b&gt;&lt;/font&gt;" style="ellipse;whiteSpace=wrap;html=1;aspect=fixed;rounded=0;" parent="1" vertex="1">
                    <mxGeometry x="12" y="850.25" width="47.5" height="47.5" as="geometry"/>
                </mxCell>
                <mxCell id="101" value="&lt;h1 style=&quot;text-align: left;&quot;&gt;&lt;span style=&quot;background-color: initial; font-weight: normal;&quot;&gt;&lt;font style=&quot;font-size: 14px;&quot;&gt;Before anything happens images and sounds are loaded&lt;/font&gt;&lt;/span&gt;&lt;br&gt;&lt;/h1&gt;" style="text;html=1;strokeColor=none;fillColor=none;align=center;verticalAlign=middle;whiteSpace=wrap;rounded=0;" parent="1" vertex="1">
                    <mxGeometry x="58.5" y="893.2499999999998" width="208" height="58" as="geometry"/>
                </mxCell>
                <mxCell id="162" value="&lt;font style=&quot;font-size: 24px;&quot;&gt;&lt;b&gt;2&lt;/b&gt;&lt;/font&gt;" style="ellipse;whiteSpace=wrap;html=1;aspect=fixed;rounded=0;" parent="1" vertex="1">
                    <mxGeometry x="11" y="951.25" width="47.5" height="47.5" as="geometry"/>
                </mxCell>
                <mxCell id="93" value="&lt;h1&gt;&lt;span style=&quot;font-size: 14px; font-weight: 400;&quot;&gt;The FSM has finished loading all the assets and enters the first state which is the idle state&lt;/span&gt;&lt;/h1&gt;" style="text;html=1;strokeColor=none;fillColor=none;spacing=5;spacingTop=-20;whiteSpace=wrap;overflow=hidden;rounded=0;fontFamily=Helvetica;fontSize=11;" parent="1" vertex="1">
                    <mxGeometry x="59.5" y="963" width="190" height="137" as="geometry"/>
                </mxCell>
                <mxCell id="94" value="&lt;h1 style=&quot;font-size: 14px;&quot;&gt;&lt;span style=&quot;font-weight: normal;&quot;&gt;&lt;font style=&quot;font-size: 14px;&quot;&gt;FSM goes through the first three frames shown for two seconds each.&amp;nbsp;&lt;/font&gt;&lt;/span&gt;&lt;/h1&gt;&lt;font style=&quot;font-size: 14px;&quot;&gt;&lt;br&gt;On the second frame plays the first sound loaded, `meow.wav`&lt;/font&gt;&lt;div style=&quot;font-size: 14px;&quot;&gt;&lt;font style=&quot;font-size: 14px;&quot;&gt;and then goes to the fleece scratch state.&lt;/font&gt;&lt;/div&gt;" style="text;html=1;strokeColor=none;fillColor=none;spacing=5;spacingTop=-20;whiteSpace=wrap;overflow=hidden;rounded=0;fontFamily=Helvetica;fontSize=11;" parent="1" vertex="1">
                    <mxGeometry x="58.5" y="1154.25" width="190" height="173" as="geometry"/>
                </mxCell>
                <mxCell id="163" value="&lt;font style=&quot;font-size: 24px;&quot;&gt;&lt;b&gt;3.1&lt;/b&gt;&lt;/font&gt;" style="ellipse;whiteSpace=wrap;html=1;aspect=fixed;rounded=0;" parent="1" vertex="1">
                    <mxGeometry x="12" y="1099.75" width="47.5" height="47.5" as="geometry"/>
                </mxCell>
                <mxCell id="95" value="&lt;h1 style=&quot;font-size: 14px;&quot;&gt;&lt;span style=&quot;font-weight: normal;&quot;&gt;Fsm will show one frame for two seconds.&lt;/span&gt;&lt;/h1&gt;&lt;div style=&quot;font-size: 14px;&quot;&gt;&lt;font style=&quot;font-size: 14px;&quot;&gt;&lt;br&gt;&lt;/font&gt;&lt;/div&gt;&lt;div style=&quot;font-size: 14px;&quot;&gt;&lt;font style=&quot;font-size: 14px;&quot;&gt;Then on the next frame spawn 1(ONE) flea image as a particle With a lifetime of 3000 milliseconds&amp;nbsp;&lt;span style=&quot;background-color: initial;&quot;&gt;at location&amp;nbsp;&lt;/span&gt;&lt;/font&gt;&lt;/div&gt;&lt;div style=&quot;font-size: 14px;&quot;&gt;&lt;font style=&quot;font-size: 14px;&quot; face=&quot;Lucida Console&quot;&gt;X:0,Y: 64, Z:0&amp;nbsp;&lt;/font&gt;&lt;/div&gt;&lt;div style=&quot;font-size: 14px;&quot;&gt;&lt;font style=&quot;font-size: 14px;&quot;&gt;with&amp;nbsp;&lt;span style=&quot;background-color: initial;&quot;&gt;velocity&amp;nbsp;&lt;/span&gt;&lt;/font&gt;&lt;/div&gt;&lt;div style=&quot;font-size: 14px;&quot;&gt;&lt;font style=&quot;font-size: 14px;&quot; face=&quot;Lucida Console&quot;&gt;VX:0,VY,64,VZ:0&lt;/font&gt;&lt;/div&gt;" style="text;html=1;strokeColor=none;fillColor=none;spacing=5;spacingTop=-20;whiteSpace=wrap;overflow=hidden;rounded=0;fontFamily=Helvetica;fontSize=11;" parent="1" vertex="1">
                    <mxGeometry x="59.5" y="1392.25" width="190" height="210" as="geometry"/>
                </mxCell>
                <mxCell id="96" value="&lt;h1 style=&quot;font-size: 14px;&quot;&gt;&lt;span style=&quot;font-weight: normal;&quot;&gt;At any point if the decoration runs out of HP the death state will be triggered and will transition to the death state&lt;/span&gt;&lt;/h1&gt;&lt;div style=&quot;font-size: 14px;&quot;&gt;&lt;font style=&quot;font-size: 14px;&quot;&gt;&lt;br&gt;&lt;/font&gt;&lt;/div&gt;&lt;div style=&quot;font-size: 14px;&quot;&gt;&lt;font style=&quot;font-size: 14px;&quot;&gt;Again play this frame two for 3 frames at point 166 second sage. And on the second frame play sound one loaded `bell.wav`&amp;nbsp;&lt;/font&gt;&lt;/div&gt;" style="text;html=1;strokeColor=none;fillColor=none;spacing=5;spacingTop=-20;whiteSpace=wrap;overflow=hidden;rounded=0;fontFamily=Helvetica;fontSize=11;" parent="1" vertex="1">
                    <mxGeometry x="59.5" y="1691.25" width="190" height="214" as="geometry"/>
                </mxCell>
                <mxCell id="97" value="&lt;h1 style=&quot;font-size: 14px;&quot;&gt;&lt;span style=&quot;font-weight: normal;&quot;&gt;After the DEATH state the machine will transition into the DEAD state and it will loop forever.&lt;/span&gt;&lt;/h1&gt;" style="text;html=1;strokeColor=none;fillColor=none;spacing=5;spacingTop=-20;whiteSpace=wrap;overflow=hidden;rounded=0;fontFamily=Helvetica;fontSize=11;" parent="1" vertex="1">
                    <mxGeometry x="58.5" y="1956.25" width="190" height="120" as="geometry"/>
                </mxCell>
                <mxCell id="164" value="&lt;font style=&quot;font-size: 24px;&quot;&gt;&lt;b&gt;3.2&lt;br&gt;&lt;/b&gt;&lt;/font&gt;" style="ellipse;whiteSpace=wrap;html=1;aspect=fixed;rounded=0;" parent="1" vertex="1">
                    <mxGeometry x="12" y="1331.75" width="47.5" height="47.5" as="geometry"/>
                </mxCell>
                <mxCell id="165" value="&lt;font style=&quot;font-size: 24px;&quot;&gt;&lt;b&gt;3.3&lt;br&gt;&lt;/b&gt;&lt;/font&gt;" style="ellipse;whiteSpace=wrap;html=1;aspect=fixed;rounded=0;" parent="1" vertex="1">
                    <mxGeometry x="11" y="1631.25" width="47.5" height="47.5" as="geometry"/>
                </mxCell>
                <mxCell id="166" value="&lt;font style=&quot;font-size: 24px;&quot;&gt;&lt;b&gt;3.4&lt;br&gt;&lt;/b&gt;&lt;/font&gt;" style="ellipse;whiteSpace=wrap;html=1;aspect=fixed;rounded=0;" parent="1" vertex="1">
                    <mxGeometry x="12" y="1896.75" width="47.5" height="47.5" as="geometry"/>
                </mxCell>
                <mxCell id="170" value="&lt;div style=&quot;&quot;&gt;&lt;span style=&quot;font-size: 18px;&quot;&gt;Try to match the English explanation with the flow chart!&amp;nbsp;&lt;/span&gt;&lt;/div&gt;" style="shape=callout;whiteSpace=wrap;html=1;perimeter=calloutPerimeter;rounded=1;shadow=1;size=21;position=0.1;position2=0.1;base=21;align=center;arcSize=30;" parent="1" vertex="1">
                    <mxGeometry x="23.5" y="677" width="310" height="70" as="geometry"/>
                </mxCell>
                <mxCell id="171" value="" style="ellipse;whiteSpace=wrap;html=1;aspect=fixed;rounded=1;shadow=1;sketch=0;" parent="1" vertex="1">
                    <mxGeometry x="14.75" y="751" width="40" height="40" as="geometry"/>
                </mxCell>
                <mxCell id="172" value="" style="shape=image;verticalLabelPosition=bottom;labelBackgroundColor=default;verticalAlign=top;aspect=fixed;imageAspect=0;image=data:image/png,iVBORw0KGgoAAAANSUhEUgAAACAAAAAgCAMAAABEpIrGAAABFFBMVEUAAAAAAAAYCQAsGQAxDgA0NDQ3HgA6IgA8GgA9HQA/JQBDIwBEJABHNQdPMwBUOwBWPwBWQQBcRABcRBNcSQBeTQBgRwBhUAtiTwBiUABjUABkUwBkVQBlUgBmZmZoUhtvYDBwYh10aTV1Yy91aDt6azF8bzJ9bTN9cDN+cDl+cEN+cTqCdUWEdUCFeECGekeHeUaNgk+Ng02PhFKRg0+ShFCWi1iXiVeajlqcj12ck2Kell+glmShl2OhmGSlnGenoWypn22po3Gso3Gso3OupHeup3Wxqnixq3qyq3myrHu1rX21rn+3r4W3soW8t4vBvI/Dv5PFwZXHwprLx5vNy6PT0Kvf2rbi3brv6s7299v////yZfJsAAAAAXRSTlMAQObYZgAAAVJJREFUeNrNkNlSwkAQRWkTxBhsNAaNZkTbDRTiOoA6rrgBSoIGFOX//8OJWAUklfLN8ryeU3eWxP8B4Bfv+jKB+AxEQQh0/R7EBQXhu6KAblywKPznnosFAXEn9JvvLbkRcws48OBD9Ft+jVtcNlEvup+9DnRbwuKXD1WCaJBLvnld71pw6/S1cREtRDLndbz7o5LFzx/bVwKjRU1SKSEXvHlS5xS9xmqlUlrA7fKNXa7LikHIG6Sl08T39l8y61wuOPMwHqxUt9BgxA5vU7YdLGyEJ86elhTMFNubKXRILhggGQ3W7nYUjURxEh07KJZJNPTRBHaPp2c4KWjbeXKIGUgUKuZAJUVBNFmemDkFANgYPyUBqqJpJprIZvUJkHAIvQVRVTCLDHUI0HnIEydQ1aCAb7gOY55LL0HKDp6oU/gvJD87gYGhj+wMzNBHd/6YL244MEYzbemVAAAAAElFTkSuQmCC;" parent="1" vertex="1">
                    <mxGeometry x="18.75" y="755" width="32" height="32" as="geometry"/>
                </mxCell>
                <mxCell id="173" value="" style="ellipse;whiteSpace=wrap;html=1;aspect=fixed;rounded=1;shadow=1;sketch=0;" parent="1" vertex="1">
                    <mxGeometry x="176" y="774" width="40" height="40" as="geometry"/>
                </mxCell>
                <mxCell id="174" value="" style="shape=image;verticalLabelPosition=bottom;labelBackgroundColor=default;verticalAlign=top;aspect=fixed;imageAspect=0;image=data:image/png,iVBORw0KGgoAAAANSUhEUgAAACAAAAAgCAMAAABEpIrGAAAAHlBMVEUAAAAAAAB2QkW2YW7Tgn3Thn7pmY71raf1wLr////Y9Bk9AAAAAXRSTlMAQObYZgAAAQNJREFUeAG10lHO2zAMA+DRZCjf/8S/JMeF6wHby8YAaQp+kY26v/5rgL/05O8CO/08bgFQrohF4PgWkGPHSUTGCbDrmYkQyOEDII5+iUHhXJ+SD2B+9cwi3GTGAuanB7xeU8wlImPh6qdVt3hj462leAe4VRHH3CMguuusFpMz9eQFgHddliG77wmBV4yI4fDIUN1Ls0QCvAegqvr1Kiz1R4HeV6XX76J/A+ddBSbz6jVblIt0Q7bQoK4NokBEDIKy1qF/wBreYzAA9RZS7D20sJy3BxmbOM8xI47Bx37cQMdZnXmeh8jM6+/GDai1OXyDWN/37CunB8QLXLkW/9Owf5MfF+0LTJktf40AAAAASUVORK5CYII=;" parent="1" vertex="1">
                    <mxGeometry x="180" y="778" width="32" height="32" as="geometry"/>
                </mxCell>
                <mxCell id="175" value="👁️👁️" style="text;html=1;strokeColor=none;fillColor=none;align=center;verticalAlign=middle;whiteSpace=wrap;rounded=0;fontSize=14;" parent="1" vertex="1">
                    <mxGeometry x="166" y="748" width="60" height="30" as="geometry"/>
                </mxCell>
                <mxCell id="176" value="??" style="text;html=1;strokeColor=none;fillColor=none;align=center;verticalAlign=middle;whiteSpace=wrap;rounded=0;fontSize=14;rotation=30;" parent="1" vertex="1">
                    <mxGeometry x="188.5" y="732" width="60" height="30" as="geometry"/>
                </mxCell>
                <mxCell id="177" value="??" style="text;html=1;strokeColor=none;fillColor=none;align=center;verticalAlign=middle;whiteSpace=wrap;rounded=0;fontSize=14;rotation=-45;" parent="1" vertex="1">
                    <mxGeometry x="143" y="734.5" width="60" height="30" as="geometry"/>
                </mxCell>
                <mxCell id="179" value="&lt;font style=&quot;font-size: 25px;&quot;&gt;💻&lt;/font&gt;" style="text;html=1;strokeColor=none;fillColor=none;align=center;verticalAlign=middle;whiteSpace=wrap;rounded=0;fontSize=14;" parent="1" vertex="1">
                    <mxGeometry x="130.5" y="784" width="60" height="30" as="geometry"/>
                </mxCell>
                <mxCell id="180" value="&lt;div style=&quot;&quot;&gt;&lt;span style=&quot;font-size: 18px;&quot;&gt;Below is a breakdown of the definition of an fsm for a decoration called cat dot states. Follow the numbers to see the execution process!&lt;/span&gt;&lt;/div&gt;" style="shape=callout;whiteSpace=wrap;html=1;perimeter=calloutPerimeter;rounded=1;shadow=1;size=21;position=0.1;position2=0.1;base=21;align=center;arcSize=30;" parent="1" vertex="1">
                    <mxGeometry x="59.5" y="48" width="457.5" height="95" as="geometry"/>
                </mxCell>
                <mxCell id="181" value="" style="ellipse;whiteSpace=wrap;html=1;aspect=fixed;rounded=1;shadow=1;sketch=0;" parent="1" vertex="1">
                    <mxGeometry x="58.5" y="143" width="40" height="40" as="geometry"/>
                </mxCell>
                <mxCell id="182" value="" style="shape=image;verticalLabelPosition=bottom;labelBackgroundColor=default;verticalAlign=top;aspect=fixed;imageAspect=0;image=data:image/png,iVBORw0KGgoAAAANSUhEUgAAACAAAAAgCAMAAABEpIrGAAABFFBMVEUAAAAAAAAYCQAsGQAxDgA0NDQ3HgA6IgA8GgA9HQA/JQBDIwBEJABHNQdPMwBUOwBWPwBWQQBcRABcRBNcSQBeTQBgRwBhUAtiTwBiUABjUABkUwBkVQBlUgBmZmZoUhtvYDBwYh10aTV1Yy91aDt6azF8bzJ9bTN9cDN+cDl+cEN+cTqCdUWEdUCFeECGekeHeUaNgk+Ng02PhFKRg0+ShFCWi1iXiVeajlqcj12ck2Kell+glmShl2OhmGSlnGenoWypn22po3Gso3Gso3OupHeup3Wxqnixq3qyq3myrHu1rX21rn+3r4W3soW8t4vBvI/Dv5PFwZXHwprLx5vNy6PT0Kvf2rbi3brv6s7299v////yZfJsAAAAAXRSTlMAQObYZgAAAVJJREFUeNrNkNlSwkAQRWkTxBhsNAaNZkTbDRTiOoA6rrgBSoIGFOX//8OJWAUklfLN8ryeU3eWxP8B4Bfv+jKB+AxEQQh0/R7EBQXhu6KAblywKPznnosFAXEn9JvvLbkRcws48OBD9Ft+jVtcNlEvup+9DnRbwuKXD1WCaJBLvnld71pw6/S1cREtRDLndbz7o5LFzx/bVwKjRU1SKSEXvHlS5xS9xmqlUlrA7fKNXa7LikHIG6Sl08T39l8y61wuOPMwHqxUt9BgxA5vU7YdLGyEJ86elhTMFNubKXRILhggGQ3W7nYUjURxEh07KJZJNPTRBHaPp2c4KWjbeXKIGUgUKuZAJUVBNFmemDkFANgYPyUBqqJpJprIZvUJkHAIvQVRVTCLDHUI0HnIEydQ1aCAb7gOY55LL0HKDp6oU/gvJD87gYGhj+wMzNBHd/6YL244MEYzbemVAAAAAElFTkSuQmCC;" parent="1" vertex="1">
                    <mxGeometry x="62.5" y="147" width="32" height="32" as="geometry"/>
                </mxCell>
                <mxCell id="183" value="" style="ellipse;whiteSpace=wrap;html=1;aspect=fixed;rounded=1;shadow=1;sketch=0;" parent="1" vertex="1">
                    <mxGeometry x="198.5" y="136" width="40" height="40" as="geometry"/>
                </mxCell>
                <mxCell id="184" value="" style="shape=image;verticalLabelPosition=bottom;labelBackgroundColor=default;verticalAlign=top;aspect=fixed;imageAspect=0;image=data:image/png,iVBORw0KGgoAAAANSUhEUgAAACAAAAAgCAMAAABEpIrGAAAAHlBMVEUAAAAAAAB2QkW2YW7Tgn3Thn7pmY71raf1wLr////Y9Bk9AAAAAXRSTlMAQObYZgAAAQNJREFUeAG10lHO2zAMA+DRZCjf/8S/JMeF6wHby8YAaQp+kY26v/5rgL/05O8CO/08bgFQrohF4PgWkGPHSUTGCbDrmYkQyOEDII5+iUHhXJ+SD2B+9cwi3GTGAuanB7xeU8wlImPh6qdVt3hj462leAe4VRHH3CMguuusFpMz9eQFgHddliG77wmBV4yI4fDIUN1Ls0QCvAegqvr1Kiz1R4HeV6XX76J/A+ddBSbz6jVblIt0Q7bQoK4NokBEDIKy1qF/wBreYzAA9RZS7D20sJy3BxmbOM8xI47Bx37cQMdZnXmeh8jM6+/GDai1OXyDWN/37CunB8QLXLkW/9Owf5MfF+0LTJktf40AAAAASUVORK5CYII=;" parent="1" vertex="1">
                    <mxGeometry x="202.5" y="140" width="32" height="32" as="geometry"/>
                </mxCell>
                <mxCell id="191" value="" style="ellipse;shape=cloud;whiteSpace=wrap;html=1;fontSize=25;" parent="1" vertex="1">
                    <mxGeometry x="226" y="106" width="66" height="47" as="geometry"/>
                </mxCell>
                <mxCell id="189" value="🍎" style="text;html=1;strokeColor=none;fillColor=none;align=center;verticalAlign=middle;whiteSpace=wrap;rounded=0;fontSize=25;" parent="1" vertex="1">
                    <mxGeometry x="229" y="114.5" width="60" height="30" as="geometry"/>
                </mxCell>
            </root>
        </mxGraphModel>
    </diagram>
</mxfile>